<svg width="500" height="500" version="1.1" xmlns="http://www.w3.org/2000/svg"><path fill="rgb(0,0,0)" stroke="rgb(0,0,0)" stroke-width="1" opacity="0" d="M 0 0 L 500 0 L 500 500 L 0 500 L 0 0 Z M 249 124 L 190 158 L 186 162 L 186 234 L 190 237 L 206 246 L 207 246 L 207 174 L 250 148 L 291 171 L 293 174 L 293 222 L 273 234 L 271 237 L 291 248 L 312 236 L 314 231 L 314 188 L 313 187 L 313 176 L 314 175 Q 312 169 313 161 L 252 124 L 249 124 Z M 250 171 L 229 183 L 227 185 L 227 211 L 249 224 L 254 223 L 271 213 L 273 211 L 273 185 L 250 171 Z M 227 235 L 227 258 L 249 271 L 254 270 L 270 260 L 235 238 L 227 235 Z "></path><path fill="rgb(191,191,193)" stroke="rgb(191,191,193)" stroke-width="1" opacity="0.9725490196078431" d="M 248.5 172 L 253.5 173 L 273 185.5 L 273 210.5 L 271.5 212 L 249 224 Q 250.1 221.3 247.5 222 L 227 209.5 Q 229.5 204 228 194.5 L 227 189.5 L 228 186.5 L 227 184 L 248.5 172 Z "></path><path fill="rgb(191,191,193)" stroke="rgb(191,191,193)" stroke-width="1" opacity="0.9725490196078431" d="M 227.5 237 L 229.5 237 L 243 244 L 243.5 246 Q 245 243.5 246.5 247 L 269 259.5 L 265.5 262 L 264.5 261 L 261.5 264 L 254 267 Q 255.1 269.7 252.5 269 L 248.5 270 L 248.5 268 L 246.5 269 L 240 265 L 239.5 263 L 238 263.5 L 238.5 262 L 236.5 263 L 227 257.5 Q 229.3 256.3 228 251.5 L 228 249.5 L 227 244.5 L 228 242.5 L 228 240.5 L 227.5 237 Z "></path><path fill="rgb(217,217,217)" stroke="rgb(217,217,217)" stroke-width="1" opacity="0.9254901960784314" d="M 248.5 124 L 251.5 124 L 313 160.5 Q 311.6 169.4 314 174.5 L 313 175.5 L 313 186.5 L 314 187.5 L 314 230.5 L 311.5 236 L 290.5 248 L 271 236.5 L 272.5 234 L 293 221.5 L 293 173.5 L 290.5 171 L 249.5 148 L 207 173.5 L 207 245.5 L 205.5 246 L 189.5 237 L 186 233.5 L 186 161.5 L 189.5 158 L 248.5 124 Z "></path><path fill="rgb(217,217,217)" stroke="rgb(217,217,217)" stroke-width="1" opacity="0.9254901960784314" d="M 254.5 173 L 255.5 175 L 254.5 173 Z "></path><path fill="rgb(217,217,217)" stroke="rgb(217,217,217)" stroke-width="1" opacity="0.9254901960784314" d="M 243.5 174 L 242.5 176 L 243.5 174 Z "></path><path fill="rgb(217,217,217)" stroke="rgb(217,217,217)" stroke-width="1" opacity="0.9254901960784314" d="M 259.5 176 L 260.5 178 L 259.5 176 Z "></path><path fill="rgb(217,217,217)" stroke="rgb(217,217,217)" stroke-width="1" opacity="0.9254901960784314" d="M 238.5 177 L 237.5 179 L 235.5 180 L 236.5 178 L 238.5 177 Z "></path><path fill="rgb(217,217,217)" stroke="rgb(217,217,217)" stroke-width="1" opacity="0.9254901960784314" d="M 266.5 180 L 267.5 182 L 266.5 180 Z "></path><path fill="rgb(217,217,217)" stroke="rgb(217,217,217)" stroke-width="1" opacity="0.9254901960784314" d="M 231.5 181 L 230.5 183 L 231.5 181 Z "></path><path fill="rgb(217,217,217)" stroke="rgb(217,217,217)" stroke-width="1" opacity="0.9254901960784314" d="M 271.5 183 L 272.5 185 L 271.5 183 Z "></path><path fill="rgb(217,217,217)" stroke="rgb(217,217,217)" stroke-width="1" opacity="0.9254901960784314" d="M 227.5 194 L 228 206.5 L 227 206.5 L 227.5 194 Z "></path><path fill="rgb(217,217,217)" stroke="rgb(217,217,217)" stroke-width="1" opacity="0.9254901960784314" d="M 227.5 210 L 239.5 217 L 241 216.5 L 240.5 218 L 242.5 217 L 243.5 220 L 249 222 L 248.5 224 L 229.5 213 L 227.5 210 Z "></path><path fill="rgb(217,217,217)" stroke="rgb(217,217,217)" stroke-width="1" opacity="0.9254901960784314" d="M 227 235 L 234.5 238 L 270 259.5 L 253.5 270 L 248.5 271 L 228 258.5 L 229.5 259 L 236.5 263 L 239.5 261 L 240 263.5 Q 239.3 265.8 241.5 265 L 245.5 268 L 247.5 268 L 249 268.5 L 248.5 270 L 252 269.5 L 251.5 268 L 254 269 Q 252.8 266 256.5 267 L 264.5 261 Q 265.8 263.3 267 260.5 L 266.5 258 L 244.5 245 L 243 245.5 Q 243.8 243.3 241.5 244 L 236.5 241 L 235 241.5 L 235.5 240 L 232.5 239 L 231 239.5 Q 233.3 238.2 230.5 237 L 228.5 238 L 227 235 Z "></path><path fill="rgb(217,217,217)" stroke="rgb(217,217,217)" stroke-width="1" opacity="0.9254901960784314" d="M 227.5 245 L 228 249.5 L 227 249.5 L 227.5 245 Z "></path><path fill="rgb(217,217,217)" stroke="rgb(217,217,217)" stroke-width="1" opacity="0.9254901960784314" d="M 227.5 251 L 228 256.5 L 227 256.5 L 227.5 251 Z "></path></svg>